# xmcd
#
# Track frame offsets:
#	150
#	12367
#	31156
#	46191
#	58184
#	73806
#	90819
#	110756
#	128073
#	142170
#	157418
#	170678
#	186253
#	200310
#	216368
#
# Disc length: 3157 seconds
#
# Revision: 0
# Processed by: cddbd v1.5.2PL0 Copyright (c) Steve Scherf et al.
# Submitted via: audiograbber 1.83.01
#
DISCID=e00c530f
DTITLE=Sound Choice - Country Hits Vol - 1 SC8101
DYEAR=1900
DGENRE=Karaoke
TTITLE0=Travis Tritt - Here's a Quarter
TTITLE1=Tanya Tucker - Some Kind Of Trouble
TTITLE2=Reba McEntire - It's Your Call
TTITLE3=Alan Jackson - Chattahoochee
TTITLE4=Brooks and Dunn - Boot Scootin' Boogie
TTITLE5=Ronnie Milsap - Smoky Mountain Rain
TTITLE6=Trisha Yearwood - She's In Love With The Boy
TTITLE7=Barbara Mandrell - I Was Country, When Country Wasn't Cool
TTITLE8=Brooks and Dunn - Brand New Man
TTITLE9=Sawyer Brown - Some Girls Do
TTITLE10=Patsy Cline - Crazy
TTITLE11=John Michael Montgomery - Life's A Dance
TTITLE12=Sammy Kershaw - Cadillac Style
TTITLE13=Diamond Rio - Norma Jean Riley
TTITLE14=Toby Keith - A Little Less Tallk and A Lot More Action
EXTD=
EXTT0=
EXTT1=
EXTT2=
EXTT3=
EXTT4=
EXTT5=
EXTT6=
EXTT7=
EXTT8=
EXTT9=
EXTT10=
EXTT11=
EXTT12=
EXTT13=
EXTT14=
PLAYORDER=
